<svg xmlns="http://www.w3.org/2000/svg"
    width="512"
    height="512"
    viewBox="0 0 512 512">
    <path
        fill="#FF000000"
        d="M437.02,74.981c-48.352,-48.352 -112.638,-74.98 -181.018,-74.98S123.334,26.63 74.982,74.981C26.63,123.333 0,187.621 0,256.001C0,324.38 26.629,388.667 74.981,437.02C123.334,485.372 187.622,512 256.002,512c68.379,0 132.666,-26.628 181.018,-74.98c48.352,-48.352 74.981,-112.639 74.981,-181.019C512,187.621 485.372,123.333 437.02,74.981zM256.002,482C131.384,482 30,380.617 30,256.001c0.001,-124.616 101.385,-226 226.002,-226c124.615,0 225.998,101.383 225.999,226C482,380.617 380.617,482 256.002,482z"/>
    <path
        fill="#FF000000"
        d="M400.6,241.001H271l0.001,-129.601c0,-8.284 -6.716,-15 -15,-15s-15,6.716 -15,15L241,241.001H111.401c-8.284,0 -15,6.716 -15,15s6.716,15 15,15H241v129.6c0,8.284 6.716,15 15,15s15,-6.716 15,-15v-129.6h129.6c8.284,0 15,-6.716 15,-15S408.884,241.001 400.6,241.001z"/>
</svg>
