<svg xmlns="http://www.w3.org/2000/svg"
    width="512"
    height="512"
    viewBox="0 0 512 512">
    <path
        d="M235.5,58.1c-30.2,3.1 -63.7,15.3 -89.5,32.4 -61.2,40.8 -95.3,112.8 -88,185.6 7,68.5 48.3,128.3 109.7,158.9 86.1,42.8 189.7,18.2 248.6,-59 16,-21 30.3,-52.9 35.6,-79.5 23.3,-116.2 -58,-226.5 -175.8,-238.5 -11.7,-1.1 -28.8,-1.1 -40.6,0.1zM275.8,67.1c57,6.2 107.2,36.4 138.7,83.4 37.8,56.4 42.9,127.4 13.4,188.5 -19,39.3 -49.6,69.9 -88.9,88.9 -52.7,25.4 -112.3,25.4 -165,-0 -59.8,-28.8 -99.7,-85.6 -106.9,-152.1 -6.5,-59.6 18,-122.2 63.2,-161.9 39.9,-35 94.1,-52.4 145.5,-46.8z"
        fill="#000000"
        stroke="#00000000"/>
    <path
        d="M174.2,140.3l-2.2,2.3 0,110.2c0,123.7 -0.4,116.3 7.1,119.7 5,2.3 9.2,1.2 16.9,-4.4 3,-2.2 7,-5 8.8,-6.3 3.8,-2.7 17.6,-12.8 21.2,-15.6 1.4,-1 5.9,-4.2 10.1,-7 4.2,-2.9 8.2,-5.9 8.9,-6.7 0.7,-0.8 1.7,-1.5 2.2,-1.5 0.5,-0 2.7,-1.4 4.8,-3.2l4,-3.1 4.4,3.4c2.5,1.9 6,4.4 7.8,5.7 1.8,1.3 5.6,4 8.5,6 2.8,2 7.9,5.7 11.4,8.2 3.5,2.5 8.6,6.2 11.4,8.2 2.7,2 6.4,4.6 8,5.8 1.7,1.1 5.5,3.9 8.5,6.1 7.5,5.4 12,6.7 16.5,4.6 1.9,-0.9 4.2,-2.9 5.2,-4.4 1.7,-2.6 1.8,-8.8 2.1,-114.2l0.2,-111.4 -2.2,-2.4 -2.1,-2.3 -79.7,-0 -79.7,-0 -2.1,2.3zM328,256l0,105.9 -3.4,-1.9c-1.8,-1.1 -4.1,-2.9 -5.1,-4 -1,-1.1 -2.2,-2 -2.6,-2 -0.5,-0 -4.3,-2.6 -8.6,-5.8 -4.3,-3.2 -9.1,-6.7 -10.7,-7.7 -1.6,-1.1 -4.1,-2.9 -5.6,-4 -14.9,-10.8 -29.7,-21.3 -32.1,-22.9 -3.7,-2.3 -6,-1.7 -12.9,3.3 -3,2.2 -6.8,5 -8.5,6.1 -3,2.1 -13.2,9.5 -21.2,15.4 -2.3,1.7 -6.5,4.7 -9.4,6.6 -2.8,1.9 -6.6,4.7 -8.4,6.2 -1.8,1.6 -3.7,2.8 -4.2,2.8 -0.6,-0 -1.8,0.9 -2.8,2 -1,1.1 -3.3,2.9 -5.1,4l-3.4,1.9 0,-105.9 0,-106 72,-0 72,-0 0,106z"
        fill="#000000"
        stroke="#00000000"/>
</svg>
