<svg xmlns="http://www.w3.org/2000/svg"
    width="512"
    height="512"
    viewBox="0 0 512 512">
    <path
        fill="#FF000000"
        d="M487.366,66.608H178.994c-6.468,0 -11.708,5.244 -11.708,11.712c0,6.468 5.24,11.712 11.708,11.712h308.372c6.468,0 11.708,-5.244 11.708,-11.712C499.074,71.852 493.834,66.608 487.366,66.608z"/>
    <path
        fill="#FF000000"
        d="M141.45,50.588c-0.52,-1.608 -2.02,-3.492 -3.712,-3.492H89.802L74.994,2.108C74.47,0.5 72.974,0 71.282,0C69.59,0 68.09,0.7 67.57,2.308L52.754,47.096H4.826c-1.692,0 -3.192,1.884 -3.712,3.492c-0.524,1.608 0.048,4.16 1.416,5.148l38.776,28.172l-14.812,45.588c-0.524,1.612 0.048,3.372 1.416,4.364c1.372,0.996 3.216,0.996 4.588,0l38.78,-28.172l38.776,28.172c0.688,0.5 1.492,0.748 2.296,0.748s1.608,-0.292 2.3,-0.796c1.364,-0.996 1.936,-2.804 1.416,-4.412l-14.812,-45.696l38.78,-28.364C141.402,54.348 141.97,52.196 141.45,50.588z"/>
    <path
        fill="#FF000000"
        d="M487.366,250.076H178.994c-6.472,0 -11.708,5.236 -11.708,11.704s5.24,11.712 11.708,11.712h308.372c6.468,0 11.708,-5.24 11.708,-11.708S493.834,250.076 487.366,250.076z"/>
    <path
        fill="#FF000000"
        d="M141.45,233.424c-0.52,-1.612 -2.02,-2.868 -3.712,-2.868H89.802l-14.808,-45.46c-0.524,-1.612 -2.02,-2.576 -3.712,-2.576c-1.692,0 -3.192,1.012 -3.712,2.62l-14.816,45.416H4.826c-1.692,0 -3.192,1.26 -3.712,2.868c-0.524,1.608 0.048,3.536 1.416,4.524l38.776,28.172l-14.812,45.588c-0.524,1.612 0.048,3.372 1.416,4.364c1.372,0.996 3.216,0.996 4.588,0l38.78,-28.172l38.776,28.172c0.688,0.5 1.492,0.748 2.296,0.748s1.608,-0.26 2.296,-0.76c1.364,-0.992 1.936,-2.768 1.416,-4.376l-14.812,-45.608l38.784,-28.212C141.402,236.872 141.97,235.036 141.45,233.424z"/>
    <path
        fill="#FF000000"
        d="M487.366,429.628H178.994c-6.468,0 -11.708,5.244 -11.708,11.712s5.24,11.712 11.708,11.712h308.372c6.468,0 11.708,-5.244 11.708,-11.712S493.834,429.628 487.366,429.628z"/>
    <path
        fill="#FF000000"
        d="M141.45,416.736c-0.52,-1.612 -2.02,-2.724 -3.712,-2.724H89.802l-14.808,-45.568c-0.524,-1.608 -2.02,-2.684 -3.712,-2.684c-1.692,0 -3.192,1.084 -3.712,2.692l-14.816,45.56H4.826c-1.692,0 -3.192,1.116 -3.712,2.724c-0.524,1.612 0.048,3.388 1.416,4.38l38.776,28.18l-14.812,45.588c-0.524,1.604 0.048,3.372 1.416,4.36c1.372,1 3.216,1 4.588,0l38.78,-28.176l38.776,28.176c0.688,0.5 1.492,0.752 2.296,0.752s1.608,-0.252 2.3,-0.752c1.364,-0.988 1.936,-2.756 1.416,-4.364l-14.812,-45.588l38.78,-28.188C141.402,420.116 141.97,418.348 141.45,416.736z"/>
</svg>
