<svg xmlns="http://www.w3.org/2000/svg"
    width="353"
    height="346"
    viewBox="0 0 353 346">
    <path
        d="M154.7,20.5c-33.5,5.5 -61.9,19.5 -85,42.2 -27,26.4 -41.9,57.3 -46.1,95.2 -3.9,34.7 5.1,71.3 24.7,100.9 22.6,34.1 57.9,57.9 98.2,66.2 11.9,2.5 37.9,3.5 50,1.9 6.6,-0.8 23.3,-4.5 29.5,-6.5 0.8,-0.3 1.7,-0.6 2,-0.6 2.6,-0.5 16,-6.8 24,-11.3 27.4,-15.4 47.6,-36.2 62.1,-64 7.2,-13.8 10.9,-24.4 14.4,-41 2.3,-11.1 2.7,-15.4 2.7,-29.5 0,-16.9 -0.6,-22.4 -4.7,-39.1 -8.6,-35.6 -31.7,-68.6 -62.6,-89.4 -16.6,-11.2 -39,-20.4 -58.4,-24 -12.4,-2.3 -39.4,-2.8 -50.8,-1zM205.4,30.1c57.8,11.7 101.8,55 114.9,112.9 1.8,8.1 2.1,12.7 2.1,31 0.1,20 -0.1,22.2 -2.6,32 -7.3,29.1 -19.2,50.4 -39.3,70.5 -22.5,22.6 -50.5,36.8 -82.5,41.9 -12.1,2 -36.7,1.3 -48.5,-1.3 -11.9,-2.6 -19.7,-4.7 -24.5,-6.8 -10.1,-4.4 -20.9,-9.8 -24.8,-12.4 -2.4,-1.6 -4.7,-2.9 -5.3,-2.9 -0.5,-0 -0.9,-0.4 -0.9,-0.8 0,-0.4 -1.2,-1.5 -2.7,-2.4 -1.6,-0.9 -3.7,-2.5 -4.8,-3.5 -1.1,-1 -4.9,-4.2 -8.3,-7.2 -10.7,-9.1 -26.1,-29.5 -31.7,-42 -1.4,-3.1 -3.1,-6.5 -3.7,-7.5 -1.8,-3.3 -6.8,-18.7 -8.9,-27.6 -3.2,-13.6 -3.7,-39.1 -1,-54.8 2.7,-15.9 5.7,-24.7 13.6,-40.7 16.5,-33 44.3,-58.4 78.3,-71.6 10.2,-3.9 25.7,-7.7 36.2,-8.8 12,-1.4 32.5,-0.4 44.4,2z"
        fill="#000000"
        stroke="#00000000"/>
    <path
        d="M192.6,103.1c-12.7,3 -25.8,14 -30.5,25.5 -2.9,7.1 -3.9,20.1 -2.2,27.1 4.3,16.8 18.4,29.5 35.8,32.4 13.3,2.1 28,-3.4 37.8,-14.3 14.6,-16.2 14.3,-41.5 -0.6,-57.3 -10.9,-11.5 -26.4,-16.6 -40.3,-13.4zM214.7,113.2c7.4,2.7 14.6,9.5 18.5,17.6 2.9,5.9 3.3,7.6 3.3,14.7 0,9.9 -3,17.1 -10.2,24.3 -7.7,7.7 -12.9,9.7 -24.8,9.7 -12,-0 -17.1,-2 -25.1,-10 -19.4,-19.2 -8.6,-52.9 18.6,-58.4 5.7,-1.2 13.1,-0.4 19.7,2.1z"
        fill="#000000"
        stroke="#00000000"/>
    <path
        d="M97.7,137.6c-0.4,0.4 -0.7,7 -0.7,14.6l0,13.8 -13.8,-0c-14.2,-0 -16.2,0.5 -16.2,4.1 0,2.6 2,2.9 16.6,2.9l13.4,-0 0,14.5c0,12.1 0.3,14.7 1.5,15.1 0.8,0.4 2.2,0.1 3,-0.6 1.2,-1 1.5,-4.1 1.5,-15.1l0,-13.8 14.1,-0.3c12.4,-0.3 14.3,-0.5 15.3,-2.1 2.2,-3.6 -1.5,-4.7 -16.1,-4.7l-13.2,-0 -0.3,-14.3c-0.3,-13.4 -0.4,-14.2 -2.3,-14.5 -1.2,-0.2 -2.4,-0 -2.8,0.4z"
        fill="#000000"
        stroke="#00000000"/>
    <path
        d="M158,199.7c-6.6,2.3 -12.4,7.5 -15.7,14.1 -2.5,5.2 -2.8,6.7 -2.8,16.6 0,9.3 0.3,11 1.8,12 1.2,0.8 2.2,0.8 3.5,-0 1.4,-0.9 1.8,-3.1 2.2,-11.5 0.6,-11.4 1.8,-14.7 7.2,-19.9 5.9,-5.5 9.6,-6 46.4,-6 37.9,-0 41.7,0.5 47.6,5.8 6.1,5.5 7.2,8.4 7.8,20.1 0.4,8.4 0.8,10.6 2.3,11.5 1.2,0.8 2.2,0.8 3.5,-0 1.4,-1 1.7,-2.7 1.7,-12 0,-9.9 -0.2,-11.4 -2.8,-16.7 -3.3,-6.6 -10.6,-12.8 -17.2,-14.6 -2.6,-0.7 -17.7,-1.1 -42.5,-1 -32.2,-0 -39.2,0.3 -43,1.6z"
        fill="#000000"
        stroke="#00000000"/>
</svg>
