<svg xmlns="http://www.w3.org/2000/svg"
    width="512"
    height="512"
    viewBox="0 0 512 512">
  <path
      d="M76.52,75.04C123.38,29.2 188.44,2.55 254.01,2.52c68.86,-0.67 137.73,27.41 185.63,77.05c-3.63,-0.61 -5.87,-4.06 -9.31,-4.93c-15.03,0.39 -30.1,0.63 -45.13,-0.05c0.48,1.6 0.96,3.2 1.44,4.8c-24.02,-16.77 -51.1,-29.2 -79.43,-36.63c-33.72,-6.92 -68.91,-7.08 -102.64,-0.14c-27.79,7.32 -54.33,19.49 -78.03,35.73c0.02,-1.25 0.08,-2.49 0.18,-3.72C110,75.47 93.24,74.5 76.52,75.04z"
      fill="#00E995"/>
  <path
      d="M204.57,42.62c33.73,-6.94 68.92,-6.78 102.64,0.14c28.33,7.43 55.41,19.86 79.43,36.63c19.4,14.66 36.84,32.03 51.05,51.78c-5.84,1.08 -11.79,0.97 -17.69,0.83c-107,-0.01 -214,0.01 -321,-0.01c-8.27,-0.07 -16.62,0.57 -24.78,-1.05c14.52,-20.11 32.38,-37.85 52.32,-52.59C150.24,62.11 176.78,49.94 204.57,42.62z"
      fill="#7D53DC"/>
  <path
      d="M76.64,74.95c16.72,-0.54 39.19,0.24 55.91,-0.6c-1.08,0.75 -3.53,2.31 -5.89,3.91c-19.94,14.74 -37.8,32.48 -52.32,52.59c-1.32,1.94 -2.61,3.9 -3.85,5.89c-3.17,-4.24 -8.83,-2.74 -13.37,-2.91c-8.92,0.49 -18.27,-1.47 -26.71,2.36C42.45,113.49 58.22,92.84 76.64,74.95z"
      fill="#00DCA0"/>
  <path
      d="M379.01,74.28c15.63,1.17 38.39,0.44 55.36,0c2.93,2.94 1.33,1.63 5.27,5.29c17.15,17.26 31.57,37.2 43.03,58.64c-13.32,0.17 -26.73,-1.23 -39.97,0.58c-1.6,-2.59 -3.29,-5.12 -5.01,-7.62C421.79,109.06 401.23,89.96 379.01,74.28z"
      fill="#00DCA1"/>
  <path
      d="M70.37,136.83c1.24,-1.99 2.53,-3.95 3.85,-5.89c8.16,1.62 16.51,0.98 24.78,1.05c107,0.02 214,0 321,0.01c5.9,0.14 11.85,0.25 17.69,-0.83c1.72,2.5 3.41,5.03 5.01,7.62c10.27,16.57 18.7,34.28 24.99,52.73c-5.21,2.56 -11.13,1.29 -16.69,1.48c-27.34,0.05 -54.69,-0.11 -82.02,0.09c-2.62,0.04 -5.1,-0.87 -7.49,-1.83c5.87,-7.4 6.76,-17.52 4.77,-26.48c-2.54,-10.37 -12.52,-18.29 -23.21,-18.36c-21.04,-0.08 -42.08,-0.06 -63.12,-0.01c-10.68,-0.03 -20.66,7.88 -23.3,18.18c-1.82,7.63 -1.21,15.85 2.09,23c0.37,1.74 0.6,3.51 0.86,5.28c-63.19,0.32 -126.39,0.03 -189.58,0.14c-8.78,0.11 -17.63,-0.63 -26.33,0.95C50.17,173.91 59.17,154.68 70.37,136.83z"
      fill="#7951D7"/>
  <path
      d="M30.29,136.28c8.44,-3.83 17.79,-1.87 26.71,-2.36c4.54,0.17 10.2,-1.33 13.37,2.91c-11.2,17.85 -20.2,37.08 -26.7,57.13c-0.07,0.22 -0.21,0.66 -0.28,0.89c-11.1,-4.88 -23.82,1.03 -34.96,-3.32C13.63,172.37 20.88,153.76 30.29,136.28z"
      fill="#00CFAC"/>
  <path
      d="M442.7,138.79c13.24,-1.81 26.65,-0.41 39.97,-0.58c10.92,20.43 18.93,42.39 23.77,65.04c-11.56,0.68 -23.63,-2.39 -34.8,1.49c-1.14,-4.46 -2.54,-8.84 -3.95,-13.22C461.4,173.07 452.97,155.36 442.7,138.79z"
      fill="#00CEAE"/>
  <path
      d="M256.63,164.59c2.64,-10.3 12.62,-18.21 23.3,-18.18c21.04,-0.05 42.08,-0.07 63.12,0.01c10.69,0.07 20.67,7.99 23.21,18.36c1.99,8.96 1.1,19.08 -4.77,26.48c-4.92,5.49 -12.04,8.98 -19.48,8.86c-20.68,0.03 -41.36,0.1 -62.04,-0.04c-8.73,0 -16.71,-5.22 -21.25,-12.49C255.42,180.44 254.81,172.22 256.63,164.59z"
      fill="#FFFFFF"/>
  <path
      d="M158.97,230.97c5.62,-2.63 11.99,-2.17 18.03,-2.19c55,0.07 110,-0.04 165,0.05c11.99,-0.22 22.91,9.4 24.55,21.21c1.69,11.04 -1.9,23.69 -12.33,29.19c-6.06,3.72 -13.4,3.29 -20.22,3.23c-54.99,-0.04 -109.99,0.01 -164.99,-0.02c-9.37,0.13 -18.43,-5.62 -22.36,-14.11c-2.81,-5.63 -2.57,-12.12 -2.2,-18.24C145.71,241.81 151.26,234.33 158.97,230.97z"
      fill="#FFFFFF"/>
  <path
      d="M143.96,339.55c-1.24,-13.68 8.7,-27.9 22.98,-28.56c21.01,-0.39 42.04,-0.06 63.06,-0.15c9.37,-0.3 18.61,5.01 22.83,13.41c3.81,7.5 3.3,16.42 1.37,24.39c-3.81,9.2 -13,16.1 -23.13,15.94c-21.34,-0.03 -42.7,0.15 -64.04,-0.09C154.22,363.91 144.13,352.1 143.96,339.55z"
      fill="#FFFFFF"/>
  <path
      d="M259.58,192.87c-0.26,-1.77 -0.49,-3.54 -0.86,-5.28c4.54,7.27 12.52,12.49 21.25,12.49c20.68,0.14 41.36,0.07 62.04,0.04c7.44,0.12 14.56,-3.37 19.48,-8.86c2.39,0.96 4.87,1.87 7.49,1.83c27.33,-0.2 54.68,-0.04 82.02,-0.09c5.56,-0.19 11.48,1.08 16.69,-1.48c1.41,4.38 2.81,8.76 3.95,13.22c4.66,21.3 6.09,43.26 4.88,65.01c-0.04,0.66 -0.12,1.98 -0.16,2.63c-1.11,-2.99 -0.86,-8.84 -5.31,-8.36c-33.9,-0.22 -67.81,0.25 -101.71,-0.21c-0.61,-5.22 -1.14,-10.45 -1.55,-15.69c-0.31,0.48 -0.93,1.44 -1.24,1.92c-1.64,-11.81 -12.56,-21.43 -24.55,-21.21c-55,-0.09 -110,0.02 -165,-0.05c-6.04,0.02 -12.41,-0.44 -18.03,2.19c-7.71,3.36 -13.26,10.84 -14.52,19.12c-0.31,-0.51 -0.94,-1.53 -1.25,-2.04c-0.46,5.28 -0.81,10.57 -0.99,15.86c-34.87,0.38 -69.77,-0.35 -104.64,0.35c-0.65,1.66 -1.31,3.32 -1.91,5.01c-0.37,-6.31 -0.76,-12.63 -0.54,-18.95c0.97,-18.68 1.97,-37.67 8.27,-55.47c0.07,-0.23 0.21,-0.67 0.28,-0.89c8.7,-1.58 17.55,-0.84 26.33,-0.95C133.19,192.9 196.39,193.19 259.58,192.87z"
      fill="#764ED2"/>
  <path
      d="M0,247.75c1.25,-18.94 3.16,-37.91 8.43,-56.22c11.14,4.35 23.86,-1.56 34.96,3.32c-6.3,17.8 -7.3,36.79 -8.27,55.47c-11.62,2.26 -23.72,-1.3 -35.12,2.01V247.75z"
      fill="#00C2B9"/>
  <path
      d="M476.52,269.75c1.21,-21.75 -0.22,-43.71 -4.88,-65.01c11.17,-3.88 23.24,-0.81 34.8,-1.49c3.14,14.25 4.65,28.79 5.56,43.33v18.73l-0.05,0.95c-10.88,-2.35 -22.1,-0.99 -33.14,-1.12"
      fill="#00BFBB"/>
  <path
      d="M143.2,248.05c0.31,0.51 0.94,1.53 1.25,2.04c-0.37,6.12 -0.61,12.61 2.2,18.24c3.93,8.49 12.99,14.24 22.36,14.11c55,0.03 110,-0.02 164.99,0.02c6.82,0.06 14.16,0.49 20.22,-3.23c10.43,-5.5 14.02,-18.15 12.33,-29.19c0.31,-0.48 0.93,-1.44 1.24,-1.92c0.41,5.24 0.94,10.47 1.55,15.69c33.9,0.46 67.81,-0.01 101.71,0.21c4.45,-0.48 4.2,5.37 5.31,8.36c-1.09,18.36 -4.17,36.7 -10.97,53.86c-3.51,9.55 -7.86,18.76 -12.19,27.95c-66.15,-0.55 -132.3,0.06 -198.45,-0.3c-0.2,-1.75 -0.43,-3.5 -0.55,-5.25c1.93,-7.97 2.44,-16.89 -1.37,-24.39c-4.22,-8.4 -13.46,-13.71 -22.83,-13.41c-21.02,0.09 -42.05,-0.24 -63.06,0.15c-14.28,0.66 -24.22,14.88 -22.98,28.56c-3.15,4.72 -0.21,9.82 1.67,14.36c-21.21,0.18 -42.42,0.02 -63.63,0.06c-7.77,-0.11 -15.72,0.86 -23.28,-1.43c-6.58,-12.92 -11.84,-26.46 -16.16,-40.28c-4.22,-13.93 -5.87,-28.52 -6.9,-42.99c0.6,-1.69 1.26,-3.35 1.91,-5.01c34.87,-0.7 69.77,0.03 104.64,-0.35C142.39,258.62 142.74,253.33 143.2,248.05z"
      fill="#714ACB"/>
  <path
      d="M0,252.33c11.4,-3.31 23.5,0.25 35.12,-2.01c-0.22,6.32 0.17,12.64 0.54,18.95c1.03,14.47 2.68,29.06 6.9,42.99c-11.7,1.49 -23.54,0.42 -35.3,0.83c-4.1,-16.63 -6.1,-33.68 -7.26,-50.75V252.33z"
      fill="#00B5C5"/>
  <path
      d="M476.74,265.12c0.93,0.01 0.97,0 2.07,0.02c11.04,0.13 22.26,-1.23 33.14,1.12c-1.34,20.8 -4.43,41.56 -10.56,61.53c-11.92,-2.1 -24.08,0.45 -36,-1.55c6.8,-17.16 9.88,-35.5 10.97,-53.86"
      fill="#00B1C8"/>
  <path
      d="M42.56,312.26c4.32,13.82 9.58,27.36 16.16,40.28c3.85,7.53 7.97,14.93 12.63,22c-13.34,-2.64 -27.39,-2.01 -40.84,-0.45c-10.39,-19.2 -18.16,-39.78 -23.25,-61C19.02,312.68 30.86,313.75 42.56,312.26z"
      fill="#00A7D2"/>
  <path
      d="M453.2,354.19c4.33,-9.19 8.68,-18.4 12.19,-27.95c11.92,2 24.08,-0.55 36,1.55c-5.5,20.8 -16.91,39.28 -23.75,59.57c-11.66,-1.61 -23.59,0.8 -35.28,-0.78C444.78,375.42 448.42,364.56 453.2,354.19z"
      fill="#00A4D4"/>
  <path
      d="M145.63,353.91c-1.88,-4.54 -4.82,-9.64 -1.67,-14.36c0.17,12.55 10.26,24.36 23.07,24.94c21.34,0.24 42.7,0.06 64.04,0.09c10.13,0.16 19.32,-6.74 23.13,-15.94c0.12,1.75 0.35,3.5 0.55,5.25c66.15,0.36 132.3,-0.25 198.45,0.3c-4.78,10.37 -8.42,21.23 -10.84,32.39c-2.18,9.35 -4.62,18.76 -4.61,28.43c-0.22,10.18 2.81,20 5.06,29.83c1,3.79 2.25,7.51 3.45,11.24c-18.89,-4.34 -35.43,-16.9 -55.3,-16.97c-11.06,1.88 -22.23,4.36 -32.32,9.47c-17.08,8.19 -34.7,15.65 -53.24,19.82c-33.05,6.26 -67.36,6.15 -100.32,-0.6c-26.1,-6.68 -50.85,-18.14 -73.51,-32.64c-23.49,-16.3 -44.26,-36.86 -60.22,-60.62c-4.66,-7.07 -8.78,-14.47 -12.63,-22c7.56,2.29 15.51,1.32 23.28,1.43C103.21,353.93 124.42,354.09 145.63,353.91z"
      fill="#6C46C3"/>
  <path
      d="M30.51,374.09c13.45,-1.56 27.5,-2.19 40.84,0.45c15.96,23.76 36.73,44.32 60.22,60.62c-16.97,4.58 -34.93,-0.15 -52.14,2.51C59.82,419.31 43.36,397.66 30.51,374.09z"
      fill="#0099DE"/>
  <path
      d="M437.75,415.01c-0.01,-9.67 2.43,-19.08 4.61,-28.43c11.69,1.58 23.62,-0.83 35.28,0.78c-5.65,17.16 -7.41,36.66 0.42,53.45c-9.56,2.35 -19.43,0.68 -29.13,1.21c-2.39,-0.06 -4.27,1.54 -6.12,2.82C440.56,435.01 437.53,425.19 437.75,415.01z"
      fill="#0098E0"/>
  <path
      d="M131.57,435.16c22.66,14.5 47.41,25.96 73.51,32.64c32.96,6.75 67.27,6.86 100.32,0.6c18.54,-4.17 36.16,-11.63 53.24,-19.82c10.09,-5.11 21.26,-7.59 32.32,-9.47c19.87,0.07 36.41,12.63 55.3,16.97c-1.2,-3.73 -2.45,-7.45 -3.45,-11.24c1.85,-1.28 3.73,-2.88 6.12,-2.82c9.7,-0.53 19.57,1.14 29.13,-1.21c5.11,11.19 13.4,20.51 22.35,28.78c4.18,4.16 8.97,7.94 11.59,13.37v4.2c-4.37,3.78 -9.94,5.78 -15.66,6.24c-30.35,2.97 -61.45,-2.08 -89.33,-14.43c-5.13,-2.22 -10.18,-5.8 -16.06,-4.94c-8.49,1.14 -15.92,5.81 -23.69,9.11c-64.04,30.82 -141,32.98 -206.85,6.4c-29.9,-12.04 -57.6,-29.66 -80.98,-51.87C96.64,435.01 114.6,439.74 131.57,435.16z"
      fill="#008CEA"/>
</svg>
