<svg xmlns="http://www.w3.org/2000/svg"
   width="512"
    height="512"
    viewBox="0 0 512 512">
    <path
        d="M206,17.5c-25.2,4.3 -50,18 -66,36.5 -39.1,45.5 -36.9,111.1 5,153 41.8,41.8 107.6,44 152.7,5.2 14,-12 26.8,-31.5 32.6,-49.3 16.9,-51.8 -6.1,-108.6 -54.1,-133.7 -22,-11.5 -47.1,-15.6 -70.2,-11.7zM236.3,49.1c42.9,6.6 73,47.2 66.8,89.9 -8.4,57.1 -71.9,87.1 -120.8,57 -28,-17.2 -43,-50.6 -36.9,-82.2 8.4,-43.2 47.9,-71.3 90.9,-64.7z"
        fill="#000000"
        stroke="#00000000"/>
    <path
        d="M409.5,161.4c-3.7,1.7 -7,5.2 -8.4,8.9 -0.7,1.7 -1.1,12.7 -1.1,28.2l0,25.4 -26.9,0.3c-25.4,0.3 -27.1,0.4 -29.7,2.4 -5.3,3.9 -6.9,7.1 -6.9,13.4 0,6.3 1.6,9.5 6.9,13.4 2.6,2 4.3,2.1 29.6,2.4l26.9,0.3 0.3,26.9c0.3,25.3 0.4,27 2.4,29.6 3.9,5.3 7.1,6.9 13.4,6.9 6.3,-0 9.5,-1.6 13.4,-6.9 2,-2.6 2.1,-4.3 2.4,-29.6l0.3,-26.9 26.9,-0.3c25.3,-0.3 27,-0.4 29.6,-2.4 5.3,-3.9 6.9,-7.1 6.9,-13.4 0,-6.3 -1.6,-9.5 -6.9,-13.4 -2.6,-2 -4.3,-2.1 -29.6,-2.4l-26.9,-0.3 -0.3,-26.9c-0.3,-25.3 -0.4,-27 -2.4,-29.6 -1.1,-1.5 -3.2,-3.7 -4.6,-4.7 -3.4,-2.5 -11.3,-3.2 -15.3,-1.3z"
        fill="#000000"
        stroke="#00000000"/>
    <path
        d="M199.5,273.5c-70,8.5 -130.7,51.6 -162,115 -11.2,22.7 -17.9,46.6 -20.5,72.7 -2.1,21.1 -1,26.7 6.4,32.2l2.7,2.1 197.9,-0 197.9,-0 2.7,-2.1c7.3,-5.4 8.4,-10.5 6.4,-31.5 -4.7,-50.8 -25.8,-95.1 -62.6,-131.1 -16.4,-16 -32,-27 -52.9,-37.3 -35.7,-17.6 -76.8,-24.7 -116,-20zM258.6,307.4c36.1,7.6 65.8,23.8 91.5,50.2 19.9,20.5 33.4,43 41.9,70 2.9,9.5 7,29.2 7,34.1l0,2.3 -175,-0 -175,-0 0,-2.3c0,-1.3 0.9,-7.3 2,-13.3 12.6,-69.7 66.7,-125.6 135.8,-140.4 15.6,-3.3 22.4,-3.9 41.7,-3.5 14.2,0.3 20.5,0.9 30.1,2.9z"
        fill="#000000"
        stroke="#00000000"/>
</svg>
