<svg xmlns="http://www.w3.org/2000/svg"
    width="512"
    height="512"
    viewBox="0 0 512 512">
  <path
      d="M249.47,0h12.04c40.86,0.81 81.79,1.14 122.51,4.88c21.58,2.24 43.48,5.1 63.69,13.41c16.55,6.66 30.6,18.69 40.98,33.07c11.08,16.03 14.88,35.66 17.54,54.61c5.5,44.59 5.21,89.62 5.77,134.47v50.96c-0.83,35.88 -0.99,71.87 -4.96,107.6c-2.17,18.05 -5.04,36.47 -13.21,52.93c-5.62,11.36 -14.51,20.69 -24.08,28.84c-17.94,14.5 -41.02,20.21 -63.38,23.64c-47.63,6.67 -95.86,6.43 -143.85,7.59H249.5c-36.84,-0.73 -73.71,-1.16 -110.47,-3.9c-22.01,-1.89 -44.23,-4.13 -65.39,-10.8c-17.99,-5.41 -34.42,-16.05 -46.16,-30.77C13.37,449.61 9.45,427.1 6.67,405.91C1.34,359.62 1.44,312.93 0,266.42v-20.79c1.09,-36.88 1.39,-73.83 3.99,-110.66c2.04,-24.55 3.6,-49.84 13.25,-72.82C26.75,41.16 45.59,25.03 67.01,17c19.47,-7.33 40.28,-10.04 60.87,-12.16C168.3,1.14 208.92,0.83 249.47,0zM321.05,24.09c-12.54,6.02 -24.67,12.93 -36.07,20.9c-1.01,0.62 -1.65,1.52 -1.93,2.68c-1.13,0.82 -2.25,1.66 -3.36,2.5c-3.69,0.28 -6.01,3.67 -8.87,5.66c-4.2,4.19 -10.36,7.33 -12.66,12.87c-1.5,1.47 -2.99,2.96 -4.47,4.46c-7.07,3.46 -10.88,11.62 -16.73,16.86c-34.89,-2.02 -70.56,7.39 -99.03,27.89c-1.09,0.61 -1.71,1.52 -1.85,2.72c-0.1,0.08 -0.31,0.23 -0.42,0.31l-1.27,-0.32c-44.45,32.18 -69.08,88.94 -63.23,143.37c1.89,21.43 8.52,42.36 18.62,61.33c1.36,2.36 0.2,5.12 0.03,7.64c-3.77,24.88 -9.61,50.5 -24.52,71.28c-5.34,8.17 -14.1,13.09 -20.39,20.27c39.91,5.8 79.64,-8.01 113.71,-27.93c2.08,-1.05 4.3,-3.25 6.76,-1.95c23.31,10.18 49.32,14.71 74.65,12.02c2.35,1.93 3.57,5.29 6.61,6.27c1.48,1.84 2.98,3.67 4.52,5.48c0.85,3.63 4.09,7.1 7.52,8.45c3.42,3.57 6.92,7.06 10.48,10.49c1.3,4.27 6.01,6.32 8.93,9.46c3.47,2.33 6.18,6.47 10.53,7.03c1.13,0.86 2.26,1.72 3.41,2.56c0.31,1.13 0.94,2.01 1.91,2.65c17.45,12.28 36.68,21.95 56.75,29.17c1.55,0.48 3.8,1.16 4.69,-0.74c27.97,-38.14 53.93,-77.82 76.94,-119.16c7.79,-14.24 15.76,-28.53 20.82,-44.01c11.55,-35.92 15.02,-74.45 10.23,-111.86c-7.82,-61.46 -40.05,-119.66 -88.96,-157.87c-0.53,-0.1 -1.58,-0.3 -2.11,-0.4c-2.75,-2.21 -5.53,-4.37 -8.35,-6.49c-0.21,-0.44 -0.63,-1.34 -0.83,-1.79c-11.27,-8.45 -23.47,-15.69 -36.15,-21.82C325.13,23.02 322.87,23.07 321.05,24.09z"
      fill="#00B0BF"/>
  <path
      d="M321.05,24.09c1.82,-1.02 4.08,-1.07 5.91,-0.02c12.68,6.13 24.88,13.37 36.15,21.82c0.2,0.45 0.62,1.35 0.83,1.79c-12.53,-9.01 -25.62,-17.59 -39.94,-23.44c-14.48,6.16 -28.12,14.32 -40.95,23.43c0.28,-1.16 0.92,-2.06 1.93,-2.68C296.38,37.02 308.51,30.11 321.05,24.09z"
      fill="#424242"/>
  <path
      d="M270.82,55.83c2.86,-1.99 5.18,-5.38 8.87,-5.66c-7.53,5.75 -14.78,11.87 -21.53,18.53C260.46,63.16 266.62,60.02 270.82,55.83z"
      fill="#424242"/>
  <path
      d="M372.29,54.17c0.53,0.1 1.58,0.3 2.11,0.4c48.91,38.21 81.14,96.41 88.96,157.87c4.79,37.41 1.32,75.94 -10.23,111.86c-5.06,15.48 -13.03,29.77 -20.82,44.01c-23.01,41.34 -48.97,81.02 -76.94,119.16c-0.89,1.9 -3.14,1.22 -4.69,0.74c-20.07,-7.22 -39.3,-16.89 -56.75,-29.17c-0.97,-0.64 -1.6,-1.52 -1.91,-2.65c18.78,13.48 39.6,24.4 61.66,31.34c31.79,-42.96 60.91,-88.02 85.91,-135.28c11.56,-21.11 18.34,-44.52 21.84,-68.25c9.19,-57.2 -2.35,-117.47 -32.75,-166.86C414.29,92.79 394.25,72.06 372.29,54.17z"
      fill="#424242"/>
  <path
      d="M236.96,90.02c5.85,-5.24 9.66,-13.4 16.73,-16.86c-5.06,5.14 -9.83,10.56 -14.37,16.16c-1.94,3.35 -6.21,1.47 -9.31,1.87c-33.5,-1.24 -66.89,9.84 -93.93,29.44c0.14,-1.2 0.76,-2.11 1.85,-2.72C166.4,97.41 202.07,88 236.96,90.02z"
      fill="#424242"/>
  <path
      d="M71.16,263.99c-5.85,-54.43 18.78,-111.19 63.23,-143.37l1.27,0.32c-38.97,28.59 -63.46,75.69 -63.98,124.08c-0.77,28.28 6.48,56.54 19.91,81.37c-1.26,15.04 -4.53,29.94 -8.86,44.4c-4.94,15.44 -11.79,30.9 -23.61,42.34c-3.76,3.76 -8.16,6.79 -12,10.46c41.19,5.6 81.37,-10.44 116.16,-31.07c24.23,10.5 51.07,15.74 77.42,12.97c2.19,2.3 3.98,4.93 5.93,7.43c-3.04,-0.98 -4.26,-4.34 -6.61,-6.27c-25.33,2.69 -51.34,-1.84 -74.65,-12.02c-2.46,-1.3 -4.68,0.9 -6.76,1.95c-34.07,19.92 -73.8,33.73 -113.71,27.93c6.29,-7.18 15.05,-12.1 20.39,-20.27c14.91,-20.78 20.75,-46.4 24.52,-71.28c0.17,-2.52 1.33,-5.28 -0.03,-7.64C79.68,306.35 73.05,285.42 71.16,263.99z"
      fill="#424242"/>
  <path
      d="M154.36,232.5c10.45,-2.55 21.84,4.33 24.14,14.86c3.56,11.74 -6.07,25.41 -18.47,25.35c-9.61,0.92 -18.83,-6.48 -20.7,-15.82C136.62,246.46 143.92,234.88 154.36,232.5z"
      fill="#424242"/>
  <path
      d="M221.35,232.49c9.66,-2.23 20.16,3.27 23.5,12.64c4.16,9.98 -1.36,22.51 -11.46,26.3c-10.29,4.38 -23.29,-1.69 -26.45,-12.44C202.86,248.15 210.09,234.99 221.35,232.49z"
      fill="#424242"/>
  <path
      d="M282.97,234.38c4.54,-2.23 9.72,-2.63 14.67,-1.86c10.89,2.42 18.19,15.05 14.6,25.66c-2.31,8.74 -11.13,15.37 -20.24,14.53c-11.83,0.05 -21.32,-12.34 -19,-23.78C273.99,242.85 278.05,237.86 282.97,234.38z"
      fill="#424242"/>
  <path
      d="M251.15,418.4c2.48,2.84 4.94,5.7 7.52,8.45C255.24,425.5 252,422.03 251.15,418.4z"
      fill="#424242"/>
  <path
      d="M269.15,437.34c6.16,5.87 12.71,11.31 19.46,16.49c-4.35,-0.56 -7.06,-4.7 -10.53,-7.03C275.16,443.66 270.45,441.61 269.15,437.34z"
      fill="#424242"/>
  <path
      d="M283.05,47.67c12.83,-9.11 26.47,-17.27 40.95,-23.43c14.32,5.85 27.41,14.43 39.94,23.44c2.82,2.12 5.6,4.28 8.35,6.49c21.96,17.89 42,38.62 56.39,63.17c30.4,49.39 41.94,109.66 32.75,166.86c-3.5,23.73 -10.28,47.14 -21.84,68.25c-25,47.26 -54.12,92.32 -85.91,135.28c-22.06,-6.94 -42.88,-17.86 -61.66,-31.34c-1.15,-0.84 -2.28,-1.7 -3.41,-2.56c-6.75,-5.18 -13.3,-10.62 -19.46,-16.49c-3.56,-3.43 -7.06,-6.92 -10.48,-10.49c-2.58,-2.75 -5.04,-5.61 -7.52,-8.45c-1.54,-1.81 -3.04,-3.64 -4.52,-5.48c-1.95,-2.5 -3.74,-5.13 -5.93,-7.43c-26.35,2.77 -53.19,-2.47 -77.42,-12.97c-34.79,20.63 -74.97,36.67 -116.16,31.07c3.84,-3.67 8.24,-6.7 12,-10.46c11.82,-11.44 18.67,-26.9 23.61,-42.34c4.33,-14.46 7.6,-29.36 8.86,-44.4c-13.43,-24.83 -20.68,-53.09 -19.91,-81.37c0.52,-48.39 25.01,-95.49 63.98,-124.08c0.11,-0.08 0.32,-0.23 0.42,-0.31c27.04,-19.6 60.43,-30.68 93.93,-29.44c3.1,-0.4 7.37,1.48 9.31,-1.87c4.54,-5.6 9.31,-11.02 14.37,-16.16c1.48,-1.5 2.97,-2.99 4.47,-4.46c6.75,-6.66 14,-12.78 21.53,-18.53C280.8,49.33 281.92,48.49 283.05,47.67zM244.22,100.19c17.94,27.13 36.97,53.59 55.23,80.53c12.54,-6.56 24,-15.47 36.35,-22.55c21.36,26.49 32.88,60.81 31.84,94.84c-0.37,33.58 -13.8,66.17 -35.09,91.88c-0.39,0.13 -1.15,0.38 -1.53,0.51c-12.03,-7.66 -23.97,-15.49 -36.03,-23.1c-16.53,23.79 -33.12,47.55 -49.32,71.56c25.49,36.67 61.9,66.29 104.18,81.22c28.91,-39.7 55.56,-81.15 78.77,-124.45c8.64,-15.68 15.1,-32.51 18.92,-50.01c8.46,-37.77 8.81,-77.73 -1.42,-115.19c-8.17,-32.05 -23.47,-62.46 -44.5,-88.04c-21.74,-24.98 -47.57,-47.18 -77.61,-61.5C292.7,50.37 265.26,72.9 244.22,100.19zM118.67,142.67c-43.88,44.47 -55.14,116.91 -27.1,172.69c2.27,4.93 6.28,9.95 4.54,15.7c-4.53,31.41 -12.66,64.31 -35.18,87.97c3.78,1.55 7.97,0.82 11.93,0.66c31.64,-2.28 61.29,-15.55 88.24,-31.54c1.37,-0.67 2.94,-0.36 4.4,-0.52c21.8,11.03 47.13,14.91 71.42,13.23c-1.2,-2.32 -2.65,-4.5 -3.76,-6.86c17.74,-28.14 37.61,-54.99 56.2,-82.6c1.04,-1.24 2.08,-4.11 4.14,-2.88c11.99,7.19 23.29,15.61 35.51,22.42c4.45,-3.43 6.88,-9.22 9.99,-13.93c25.76,-43.8 23.71,-102.1 -5.35,-143.79c-1.49,-0.53 -2.82,0.73 -4.05,1.36c-10.54,7.11 -21.55,13.56 -31.91,20.92c-2.32,-1.77 -4.23,-3.97 -5.68,-6.49c-19.77,-28.58 -39.51,-57.18 -59.21,-85.81c-1.7,-2 -1.1,-4.65 -1.02,-7.03C189.76,93.98 147.26,111.9 118.67,142.67z"
      fill="#FFFFFF"/>
  <path
      d="M244.22,100.19c21.04,-27.29 48.48,-49.82 79.79,-64.3c30.04,14.32 55.87,36.52 77.61,61.5c21.03,25.58 36.33,55.99 44.5,88.04c-5.83,46.47 -28.87,90 -60.88,123.82c-15.24,14.8 -32.54,28.33 -52.69,35.64c21.29,-25.71 34.72,-58.3 35.09,-91.88c1.04,-34.03 -10.48,-68.35 -31.84,-94.84c-12.35,7.08 -23.81,15.99 -36.35,22.55C281.19,153.78 262.16,127.32 244.22,100.19z"
      fill="#F9BC38"/>
  <path
      d="M118.67,142.67c28.59,-30.77 71.09,-48.69 113.11,-46.5c-0.08,2.38 -0.68,5.03 1.02,7.03c19.7,28.63 39.44,57.23 59.21,85.81c1.45,2.52 3.36,4.72 5.68,6.49c-4.18,13.24 -10.72,25.64 -14.72,38.88c-4.92,3.48 -8.98,8.47 -9.97,14.55c-0.52,2.16 -1,4.35 -1.89,6.4c-21.22,37.42 -46.09,72.89 -74.87,104.91c-9.79,9.6 -18.7,20.46 -30.74,27.39c-1.46,0.16 -3.03,-0.15 -4.4,0.52c-26.95,15.99 -56.6,29.26 -88.24,31.54c-3.96,0.16 -8.15,0.89 -11.93,-0.66c22.52,-23.66 30.65,-56.56 35.18,-87.97c1.74,-5.75 -2.27,-10.77 -4.54,-15.7C63.53,259.58 74.79,187.14 118.67,142.67zM154.36,232.5c-10.44,2.38 -17.74,13.96 -15.03,24.39c1.87,9.34 11.09,16.74 20.7,15.82c12.4,0.06 22.03,-13.61 18.47,-25.35C176.2,236.83 164.81,229.95 154.36,232.5zM221.35,232.49c-11.26,2.5 -18.49,15.66 -14.41,26.5c3.16,10.75 16.16,16.82 26.45,12.44c10.1,-3.79 15.62,-16.32 11.46,-26.3C241.51,235.76 231.01,230.26 221.35,232.49z"
      fill="#F8F4DF"/>
  <path
      d="M329.6,174.58c1.23,-0.63 2.56,-1.89 4.05,-1.36c29.06,41.69 31.11,99.99 5.35,143.79c-3.11,4.71 -5.54,10.5 -9.99,13.93c-12.22,-6.81 -23.52,-15.23 -35.51,-22.42c-2.06,-1.23 -3.1,1.64 -4.14,2.88c-18.59,27.61 -38.46,54.46 -56.2,82.6c1.11,2.36 2.56,4.54 3.76,6.86c-24.29,1.68 -49.62,-2.2 -71.42,-13.23c12.04,-6.93 20.95,-17.79 30.74,-27.39c28.78,-32.02 53.65,-67.49 74.87,-104.91c0.89,-2.05 1.37,-4.24 1.89,-6.4c-2.32,11.44 7.17,23.83 19,23.78c9.11,0.84 17.93,-5.79 20.24,-14.53c3.59,-10.61 -3.71,-23.24 -14.6,-25.66c-4.95,-0.77 -10.13,-0.37 -14.67,1.86c4,-13.24 10.54,-25.64 14.72,-38.88C308.05,188.14 319.06,181.69 329.6,174.58z"
      fill="#EFE8BE"/>
  <path
      d="M385.24,309.25c32.01,-33.82 55.05,-77.35 60.88,-123.82c10.23,37.46 9.88,77.42 1.42,115.19c-3.82,17.5 -10.28,34.33 -18.92,50.01c-23.21,43.3 -49.86,84.75 -78.77,124.45c-42.28,-14.93 -78.69,-44.55 -104.18,-81.22c16.2,-24.01 32.79,-47.77 49.32,-71.56c12.06,7.61 24,15.44 36.03,23.1c0.38,-0.13 1.14,-0.38 1.53,-0.51C352.7,337.58 370,324.05 385.24,309.25z"
      fill="#F7AB07"/>
</svg>
