<svg xmlns="http://www.w3.org/2000/svg"
    width="500"
    height="500"
    viewBox="0 0 500 500">
    <path
        d="M225,14.1c-28.1,3.8 -49,9.1 -67.5,17.1 -53.4,23.2 -94.7,61.5 -120.2,111.3 -14.4,28.2 -20.5,49.4 -25.3,87.5 -2.7,22.1 -0.3,51 6.6,79.5 18.9,78.2 80.9,144 158.8,168.6 29,9.1 67.6,13.1 95,9.8 41.3,-5 73.8,-16.4 106.1,-37.4 20.6,-13.3 38,-28.8 53.7,-47.5 11.5,-13.7 25.1,-34.7 30.9,-47.7 1.7,-3.7 4.2,-9.1 5.4,-11.9 23.1,-51 24.4,-122.3 3.3,-176.9 -20.9,-53.7 -60.1,-98.3 -109.7,-124.9 -12.2,-6.6 -31,-14.6 -42,-18.1 -10.2,-3.1 -34,-7.8 -47.6,-9.4 -11.4,-1.3 -37.8,-1.3 -47.5,-0zM269.5,25.5c23.2,2.4 40.4,6.4 61,14.2 43.1,16.3 83.4,49.1 109,88.8 10.6,16.3 21.1,39.2 26,56 0.9,3.3 2.1,7.1 2.6,8.5 2.2,6.2 5.9,28.9 7,42.8 1.9,22.6 -0.5,47.6 -6.6,70.7 -3.8,14.5 -4.5,16.5 -8.8,27.5 -19.7,50.9 -59.1,94 -108.7,119.1 -21.5,10.8 -38.2,16.2 -68,21.9 -2.5,0.5 -11.4,1.4 -19.9,2.1 -39.5,3 -84,-6.8 -121.1,-26.7 -54.8,-29.3 -95.5,-80.8 -111.7,-141.3 -3.9,-14.7 -5.3,-23.1 -6.7,-41.1 -3.4,-42.3 4.7,-82.7 24.5,-120.8 22.2,-42.9 56.7,-77.1 99.7,-98.6 13.8,-6.9 26,-11.7 38.5,-15.1 3.1,-0.8 8.1,-2.1 11,-2.9 8.4,-2.3 17.4,-3.8 31.2,-5.1 17.7,-1.7 24.6,-1.7 41,-0z"
        fill="#000000"
        stroke="#00000000"/>
    <path
        d="M234.4,108.5c-14.2,3.1 -26.7,9.8 -37,20 -7.8,7.6 -13.2,15.4 -16.5,23.7 -4.9,12.2 -5.2,14.3 -5.8,41.8l-0.6,26.5 -6.2,0.7c-3.4,0.4 -8.2,1.5 -10.5,2.6 -6.4,2.8 -13.3,10.2 -15.8,16.8 -2,5.5 -2.1,6.9 -1.8,61.8l0.3,56.1 2.3,4.3c3.6,6.7 10.1,12.6 16.6,15.1 5.6,2.1 6.4,2.1 89.5,2.1 75.9,-0 84.4,-0.2 89.1,-1.7 6.1,-2 13.4,-8.2 17,-14.4l2.5,-4.4 0.3,-56.9c0.3,-63.8 0.4,-62.7 -6.7,-70.8 -5.5,-6.2 -12.8,-9.9 -20.7,-10.6l-6.4,-0.5 0,-20.6c0,-28.6 -1.9,-39.4 -9.8,-54.4 -6.9,-13.2 -23.2,-27.6 -38.2,-33.5 -12.6,-5 -29,-6.5 -41.6,-3.7zM269.8,122.3c14.8,5.3 28.2,17.3 35.6,31.8 5.6,11 6.6,17.7 6.6,43.9l0,23 -62.7,-0.2 -62.8,-0.3 -0.3,-21.5c-0.3,-29.4 1.7,-38.7 11.4,-53 8.7,-12.9 23.4,-22.7 38.9,-26 2.2,-0.5 9,-0.8 15,-0.6 8.8,0.2 12.5,0.8 18.3,2.9zM336.6,234.9c4.1,1.9 6.9,5.1 9.2,10.4 0.9,2.1 1.2,16.6 1.2,55.3 0,51.7 0,52.5 -2.2,57 -1.5,3.2 -3.6,5.6 -6.7,7.5l-4.5,2.9 -83.7,-0c-56.8,-0 -84.7,-0.3 -86.6,-1.1 -1.5,-0.5 -4.1,-2.2 -5.6,-3.7 -6.1,-5.8 -5.9,-3.5 -5.8,-62.1 0,-37 0.3,-54.6 1.1,-56.6 1.5,-3.9 5.7,-8.4 9.5,-10.1 2.4,-1.1 18.9,-1.3 86.5,-1.3 79.3,-0.1 83.7,-0 87.6,1.8z"
        fill="#000000"
        stroke="#00000000"/>
</svg>
