<svg xmlns="http://www.w3.org/2000/svg"
    width="512"
    height="512"
    viewBox="0 0 512 512">
    <path
        d="M57.5,1.4c-4.1,1.8 -8.3,6.9 -9,10.9 -0.3,1.8 -0.4,112.6 -0.3,246.4l0.3,243.2 2.1,2.8c4.8,6.4 11.4,8.7 18.1,6.3 1.6,-0.6 43.2,-41.5 95.1,-93.3l92.2,-92.2 92.3,92.2c51.8,51.8 93.4,92.7 95,93.3 6.7,2.4 13.3,0.1 18.1,-6.3l2.1,-2.8 0,-245.9 0,-245.9 -2.1,-2.7c-1.1,-1.5 -3.3,-3.7 -4.8,-4.8l-2.7,-2.1 -196.7,-0.2c-162,-0.2 -197.2,-0 -199.7,1.1zM434,245.2l0,215.3 -84.8,-84.7c-93.1,-93 -88.1,-88.6 -97.4,-85.9 -3.8,1.1 -14.9,11.9 -89,85.9l-84.8,84.7 0,-215.3 0,-215.2 178,-0 178,-0 0,215.2z"
        fill="#000000"
        stroke="#00000000"/>
</svg>
