<svg xmlns="http://www.w3.org/2000/svg"
    width="512"
    height="512"
    viewBox="0 0 512 512">
  <path
      d="M256,256m-256,0a256,256 0,1 1,512 0a256,256 0,1 1,-512 0"
      fill="#37465C"/>
  <path
      d="M276.058,109.468l-46.752,272.105l114.862,114.838c73.988,-27.143 131.953,-87.469 155.889,-162.945L276.058,109.468z"
      fill="#29394C"/>
  <path
      d="M325.191,342.525c0,0 -8.695,10.006 -25.221,10.006c-16.522,0 -23.911,-10.006 -23.911,-24.786v-83.773h53.426v-50.767h-53.426v-83.735H235.83c-6.289,37.574 -31.063,68.87 -64.671,84.228v50.274h39.241v96.468c0,13.391 12.61,62.093 76.964,62.093c37.828,0 53.479,-24.352 53.479,-24.352L325.191,342.525z"
      fill="#FFFFFF"/>
  <path
      d="M325.191,342.525c0,0 -8.695,10.006 -25.221,10.006c-16.522,0 -23.911,-10.006 -23.911,-24.786v-83.771h53.426v-50.767h-53.426v-83.737h-21.783v287.723c9.126,3.31 20.025,5.341 33.087,5.341c37.828,0 53.479,-24.352 53.479,-24.352L325.191,342.525z"
      fill="#D1D1D1"/>
</svg>
