<svg xmlns="http://www.w3.org/2000/svg"
    width="500"
    height="285"
    viewBox="0 0 500 285">
  <path
      d="M153,21.5c-19.2,5.9 -24.4,32.6 -8.9,45.8 4.4,3.9 11.9,6.7 17.4,6.7 10.8,-0 21.5,-7.6 25,-17.7l1.2,-3.4 2.7,5.5c4.6,9.3 14.3,15.6 24.1,15.6 14.6,-0 26.5,-12.1 26.5,-27 0,-14.9 -11.9,-27 -26.5,-27 -10,-0 -20.5,7 -24.5,16.2l-2.2,5.2 -1.3,-3.7c-4.6,-13.5 -19.3,-20.5 -33.5,-16.2zM169.5,38c8.4,7.9 2,21.9 -9.3,20.7 -11,-1.2 -14.5,-14 -5.9,-21.3 2.7,-2.2 3.8,-2.5 7.9,-2.2 3.2,0.4 5.7,1.3 7.3,2.8zM222.5,38c7.7,7.3 3.7,19.6 -6.7,20.7 -10.8,1.1 -17.3,-10.7 -10.6,-19.2 1.1,-1.5 3,-3.1 4.2,-3.6 3.5,-1.5 10.5,-0.4 13.1,2.1z"
      fill="#000000"
      stroke="#00000000"/>
  <path
      d="M305.3,21.9c-16.3,7.4 -20.5,29.8 -8,43 10.1,10.7 28.1,10.7 38.5,0.1 5.2,-5.4 7.2,-10.6 7.2,-18.6 0,-11.4 -5.4,-19.9 -15.5,-24.5 -5.5,-2.5 -16.6,-2.5 -22.2,-0zM323.7,36.5c3.2,2.2 5.6,8 4.9,11.9 -1.8,9 -13.1,12.9 -19.9,6.9 -11.3,-10.1 2.3,-27.1 15,-18.8z"
      fill="#000000"
      stroke="#00000000"/>
  <path
      d="M376.7,38.8c-9.3,7.4 -9.6,7.7 -6.7,8l3,0.3 -0.1,41.2c-0.1,37.3 -0.2,40.7 -1.5,35.5 -2.5,-10.4 -11.5,-25.2 -18,-29.4l-2.5,-1.7 -10.9,10.8 -10.9,10.9 4.6,4c5.9,5.2 8.2,10.4 8.3,18.4 0,14.3 -10.1,24.5 -24.5,24.5 -4.7,0.1 -7.1,-0.5 -10.5,-2.4 -2.7,-1.5 -4.4,-3.1 -4.1,-4 2.9,-11.5 3.4,-17.5 2.3,-25.3 -1.5,-10.1 -4.9,-16 -11.1,-19.3 -4.8,-2.5 -12.9,-3.1 -17.8,-1.2 -10.2,3.8 -16.1,19.3 -13.5,35.1 0.7,4 1.5,8.5 1.8,10 0.5,2.4 0.1,2.9 -3.7,4.9 -6.9,3.5 -18.5,2.8 -24.1,-1.5 -1.6,-1.1 -1.6,-1.7 -0.3,-6.7 1.9,-6.9 1.9,-21.2 0.1,-27.3 -3,-9.9 -10.3,-15.6 -20.1,-15.6 -9.2,-0 -17,5.6 -19.6,13.8 -2,6.6 -2.2,20.1 -0.5,27.7 2,8.1 1.7,8.5 -6.8,11 -6.2,1.9 -7,1.9 -13.5,-0.1 -18.4,-5.4 -23.8,-28 -10,-41.5l4.7,-4.6 -10.9,-10.9 -11,-10.9 -5.8,6.1c-6.8,7.2 -12.5,17.9 -14.2,26.6l-1.2,6.2 -1.7,-7.1c-2.6,-10.9 -6.5,-17.9 -15,-26.3 -9.2,-9.3 -17.3,-13.5 -29.8,-15.7 -33.7,-5.8 -64.2,20.2 -64.2,54.7 0,25.4 17.8,47.7 42.6,53.6 9.6,2.2 22.7,1.5 31.8,-1.9l6.9,-2.6 -0.5,19.7c-0.3,10.8 -0.2,16.5 0.1,12.7l0.6,-7 3.3,-0.3 3.2,-0.3 0,8.1 0,8.2 -6.5,-0.7c-3.6,-0.4 -6.5,-0.5 -6.5,-0.1 0,0.3 4.8,4.2 10.7,8.5l10.6,7.9 7.6,-5.9c4.2,-3.2 9,-7 10.6,-8.4l3,-2.4 -3.2,-0.1 -3.3,-0 0.1,-39.8c0.1,-34.8 0.2,-39.1 1.4,-34.9 3.5,12.6 11.7,24 22.2,31 9.9,6.5 17,8.9 28.3,9.4 11.7,0.7 19.3,-1.1 29.9,-6.8 6.5,-3.5 7.6,-3.8 9,-2.5 0.9,0.7 4,2.6 6.8,4 16.2,8.1 38.2,7.1 53.6,-2.4l4.7,-2.9 4.8,2.9c11.4,7.1 28.1,9.8 41.6,6.6 19.5,-4.6 35.9,-20.8 41,-40.6 0.8,-3 1.6,-4.8 1.8,-4 6.1,20.8 14,31.7 28.6,39.3 10.1,5.3 17.9,7 29.2,6.4 11.5,-0.5 20.3,-3.6 29.7,-10.3 14.8,-10.5 22.3,-25.7 22.3,-44.9 0,-15.8 -5,-27.8 -16.4,-39 -16.5,-16.3 -39.4,-20.4 -61.8,-11 -1.7,0.7 -1.8,-0.6 -1.8,-19.3l0,-20.1 3.3,-0.3c3.1,-0.3 2.9,-0.5 -7.3,-8 -5.8,-4.3 -10.9,-7.8 -11.5,-7.8 -0.5,-0 -5.4,3.5 -10.8,7.8zM380.8,61.2l0.3,13.8 -3.6,-0 -3.5,-0 0,-13.3c0,-7.4 0.3,-13.7 0.7,-14.1 0.4,-0.4 1.9,-0.6 3.3,-0.4l2.5,0.3 0.3,13.7zM391.8,58.2l0.3,10.8 -3.6,-0 -3.5,-0 0,-11.1 0,-11 3.3,0.3 3.2,0.3 0.3,10.7zM402,55.1l0,8 -3.2,-0.3 -3.3,-0.3 -0.3,-6.4c-0.4,-8.1 0,-9.1 3.8,-9.1l3,-0 0,8.1zM82,114.1c24.2,10.9 16.9,47.2 -9.5,47.3 -11.3,-0 -21,-7.3 -24.1,-18.2 -5.7,-19.5 15,-37.5 33.6,-29.1zM440.5,115.4c17.3,10.2 16.2,34.6 -1.9,43.8 -4.8,2.5 -13.2,2.9 -19,0.9 -4.8,-1.7 -11.1,-7.3 -13.6,-12.1 -6.8,-13.3 -0.3,-29.4 13.9,-34.7 5.6,-2.1 15.1,-1.1 20.6,2.1zM219.4,127.4c2.9,6.1 1.5,19.7 -2.3,22 -1.5,1 -4.2,-4.9 -4.8,-10.8 -0.4,-4 -0.1,-6.4 1.5,-9.9 1.2,-2.6 2.5,-4.7 3,-4.7 0.5,-0 1.7,1.5 2.6,3.4zM286.6,128.6c2,4.7 1.7,12.2 -0.7,17.4l-2,4.5 -1.9,-2.5c-3.6,-4.7 -3.9,-16.4 -0.5,-21.6 1.9,-2.9 3.2,-2.4 5.1,2.2zM126.8,212.7l-0.3,13.8 -3.2,0.3 -3.3,0.3 0,-14 0,-14.1 3.5,-0 3.6,-0 -0.3,13.7zM115.8,215.7l-0.3,10.8 -3,-0 -3,-0 -0.3,-10.8 -0.3,-10.7 3.6,-0 3.6,-0 -0.3,10.7z"
      fill ="#000000"
      stroke="#00000000"/>
  <path
      d="M219.5,215.9c-9.7,2.5 -17.5,9.8 -20.1,18.9 -5,17 7.9,34.2 25.6,34.2 10.8,-0 22.4,-7.8 25.1,-17l1.3,-4.3 1.8,4.2c2.9,6.8 6.6,10.9 13.1,14.1 13,6.5 27.3,2.3 35.1,-10.3 4.2,-6.8 4.8,-16.4 1.4,-23.8 -4.9,-10.7 -13.4,-16.3 -24.8,-16.3 -10.8,-0 -19.8,6 -24.4,16.1l-1.9,4.3 -2.2,-4.8c-2.4,-5.2 -9,-11.7 -13.9,-13.7 -4.3,-1.8 -12.3,-2.6 -16.1,-1.6zM233.7,234.4c7,7.6 2.1,19.6 -8,19.6 -8.1,-0 -13.4,-5.7 -12.4,-13.3 1.4,-10.4 13.3,-14 20.4,-6.3zM283.6,231.6c4.2,2 6.4,5.9 6.4,11.5 0,3.3 -0.6,4.7 -3.4,7.5 -2.8,2.8 -4.2,3.4 -7.5,3.4 -2.3,-0 -5.5,-0.7 -7,-1.5 -3,-1.5 -6.1,-6.9 -6.1,-10.5 0,-5.4 6.5,-12 11.8,-12 1.3,-0 3.9,0.7 5.8,1.6z"
      fill="#000000"
      stroke="#00000000"/>
</svg>
